<svg id="svg" version="1.1" xmlns="http://www.w3.org/2000/svg" xmlns:xlink="http://www.w3.org/1999/xlink" viewBox="0 0 479.88 548.26"><g id="svgg"><path id="path0" d="" stroke="none" fill="#fffefe" fill-rule="evenodd"></path><path id="path1" d="M197.144 28.513 C 196.561 29.525,195.858 30.758,195.583 31.254 C 195.308 31.750,194.850 32.552,194.566 33.036 C 194.281 33.520,193.764 34.442,193.417 35.083 C 193.070 35.725,192.692 36.362,192.578 36.500 C 192.463 36.637,191.937 37.537,191.410 38.500 C 190.882 39.462,190.315 40.445,190.149 40.683 C 189.983 40.921,189.307 42.084,188.648 43.266 C 187.989 44.449,187.389 45.457,187.314 45.506 C 187.240 45.555,187.057 45.892,186.907 46.256 C 186.757 46.619,186.391 47.292,186.092 47.750 C 185.794 48.208,185.227 49.183,184.832 49.917 C 184.438 50.650,183.915 51.550,183.671 51.917 C 183.426 52.283,182.902 53.183,182.507 53.917 C 182.111 54.650,181.546 55.625,181.252 56.083 C 180.656 57.013,178.751 60.351,178.275 61.302 C 178.106 61.640,177.723 62.292,177.425 62.750 C 177.127 63.208,176.560 64.183,176.166 64.917 C 175.771 65.650,175.247 66.550,175.001 66.917 C 174.755 67.283,174.269 68.108,173.922 68.750 C 173.010 70.434,172.448 71.405,172.329 71.500 C 172.217 71.589,171.758 72.421,171.592 72.833 C 171.537 72.971,171.120 73.683,170.666 74.417 C 170.211 75.150,169.689 76.072,169.506 76.466 C 169.322 76.860,168.957 77.498,168.695 77.883 C 168.433 78.268,167.803 79.333,167.297 80.250 C 166.790 81.167,166.104 82.327,165.771 82.830 C 165.439 83.332,165.167 83.794,165.167 83.857 C 165.167 84.018,163.842 86.318,163.404 86.917 C 163.203 87.192,162.984 87.604,162.916 87.833 C 162.849 88.063,162.701 88.362,162.587 88.500 C 162.308 88.837,160.968 91.136,160.717 91.708 C 160.607 91.960,160.299 92.485,160.034 92.875 C 159.768 93.265,159.137 94.333,158.630 95.250 C 158.123 96.167,157.437 97.327,157.104 97.830 C 156.772 98.332,156.500 98.794,156.500 98.857 C 156.500 99.018,155.176 101.318,154.738 101.917 C 154.537 102.192,154.317 102.604,154.250 102.833 C 154.182 103.063,154.034 103.362,153.920 103.500 C 153.675 103.796,152.489 105.837,151.798 107.152 C 151.529 107.664,151.209 108.196,151.087 108.333 C 150.965 108.471,150.398 109.446,149.826 110.500 C 149.254 111.554,148.730 112.454,148.662 112.500 C 148.594 112.546,148.257 113.108,147.914 113.750 C 146.949 115.554,146.010 117.141,145.849 117.240 C 145.769 117.290,145.653 117.530,145.592 117.774 C 145.531 118.018,145.272 118.525,145.016 118.901 C 144.761 119.276,144.119 120.371,143.591 121.333 C 143.063 122.296,142.534 123.196,142.415 123.333 C 142.296 123.471,141.733 124.440,141.164 125.486 C 140.594 126.533,139.912 127.688,139.647 128.053 C 139.383 128.418,139.167 128.775,139.167 128.845 C 139.167 129.010,137.540 131.836,137.255 132.167 C 137.137 132.304,136.984 132.604,136.915 132.833 C 136.847 133.063,136.580 133.566,136.323 133.951 C 136.065 134.337,135.388 135.500,134.818 136.535 C 134.248 137.570,133.726 138.454,133.659 138.500 C 133.592 138.546,133.069 139.446,132.497 140.500 C 131.924 141.554,131.241 142.713,130.978 143.075 C 130.715 143.436,130.500 143.797,130.500 143.875 C 130.500 144.083,128.632 147.240,128.470 147.306 C 128.395 147.336,128.333 147.488,128.333 147.643 C 128.333 147.798,128.066 148.329,127.740 148.825 C 127.414 149.320,126.690 150.556,126.130 151.571 C 125.571 152.586,124.950 153.642,124.749 153.917 C 124.549 154.192,124.030 155.084,123.595 155.900 C 123.161 156.715,122.549 157.755,122.236 158.210 C 121.923 158.665,121.667 159.105,121.667 159.187 C 121.667 159.269,121.250 160.029,120.740 160.877 C 119.718 162.574,119.706 162.595,119.158 163.667 C 118.947 164.079,118.728 164.454,118.671 164.500 C 118.548 164.599,117.915 165.688,117.171 167.083 C 116.877 167.633,116.392 168.458,116.092 168.917 C 115.793 169.375,115.116 170.537,114.588 171.500 C 114.060 172.463,113.565 173.290,113.488 173.339 C 113.410 173.388,113.155 173.838,112.921 174.339 C 112.686 174.840,112.160 175.775,111.752 176.417 C 111.343 177.058,110.963 177.696,110.908 177.833 C 110.714 178.315,110.283 179.090,109.750 179.917 C 109.454 180.375,108.891 181.350,108.500 182.083 C 108.108 182.817,107.584 183.717,107.335 184.083 C 107.086 184.450,106.450 185.537,105.922 186.500 C 105.394 187.463,104.899 188.290,104.821 188.339 C 104.744 188.388,104.488 188.838,104.254 189.339 C 104.020 189.840,103.494 190.775,103.085 191.417 C 102.676 192.058,102.297 192.696,102.241 192.833 C 102.047 193.314,101.616 194.090,101.083 194.917 C 100.787 195.375,100.266 196.275,99.925 196.917 C 99.584 197.558,99.042 198.496,98.719 199.000 C 98.035 200.072,96.301 203.092,95.583 204.463 C 95.308 204.989,94.872 205.744,94.613 206.142 C 94.354 206.540,93.838 207.439,93.466 208.141 C 93.094 208.843,92.624 209.642,92.422 209.917 C 92.219 210.192,91.693 211.092,91.253 211.917 C 90.436 213.446,90.001 214.184,89.827 214.333 C 89.774 214.379,89.368 215.092,88.926 215.917 C 88.483 216.742,87.831 217.863,87.477 218.408 C 87.123 218.953,86.833 219.482,86.833 219.583 C 86.833 219.684,86.534 220.228,86.168 220.791 C 85.802 221.354,85.192 222.400,84.813 223.116 C 84.434 223.831,83.958 224.642,83.755 224.917 C 83.553 225.192,83.027 226.092,82.588 226.917 C 82.149 227.742,81.550 228.792,81.258 229.250 C 80.560 230.343,78.724 233.546,78.244 234.508 C 78.035 234.925,77.483 235.862,77.016 236.591 C 76.549 237.320,76.167 237.969,76.167 238.033 C 76.167 238.184,74.979 240.225,74.828 240.333 C 74.764 240.379,74.352 241.092,73.913 241.917 C 73.474 242.742,72.789 243.919,72.391 244.533 C 71.993 245.147,71.667 245.755,71.667 245.885 C 71.667 246.015,71.531 246.301,71.366 246.519 C 70.864 247.183,69.500 249.451,69.500 249.622 C 69.500 249.710,69.189 250.262,68.809 250.849 C 68.428 251.436,67.708 252.667,67.207 253.583 C 66.706 254.500,66.240 255.287,66.171 255.333 C 66.101 255.379,65.686 256.092,65.248 256.917 C 64.810 257.742,64.133 258.912,63.744 259.518 C 63.356 260.123,62.983 260.798,62.916 261.018 C 62.849 261.237,62.702 261.529,62.590 261.667 C 62.259 262.073,60.833 264.499,60.833 264.656 C 60.833 264.735,60.563 265.201,60.232 265.692 C 59.902 266.182,59.182 267.408,58.633 268.417 C 58.083 269.425,57.536 270.362,57.416 270.500 C 57.296 270.637,56.880 271.350,56.491 272.083 C 56.103 272.817,55.466 273.912,55.078 274.518 C 54.689 275.123,54.317 275.790,54.250 276.000 C 54.183 276.210,53.810 276.877,53.420 277.482 C 53.030 278.088,52.395 279.183,52.008 279.915 C 51.622 280.648,51.248 281.286,51.177 281.332 C 51.106 281.379,50.597 282.242,50.046 283.250 C 49.495 284.258,48.772 285.494,48.439 285.996 C 48.106 286.498,47.833 286.965,47.833 287.033 C 47.833 287.183,46.205 289.982,45.913 290.333 C 45.799 290.471,45.655 290.752,45.592 290.958 C 45.529 291.164,45.089 291.963,44.614 292.734 C 44.139 293.505,43.465 294.648,43.116 295.276 C 42.351 296.651,41.385 298.313,40.370 300.000 C 39.956 300.688,39.395 301.662,39.123 302.167 C 38.454 303.408,37.492 305.028,37.243 305.333 C 37.131 305.471,36.983 305.771,36.913 306.000 C 36.844 306.229,36.470 306.904,36.083 307.500 C 35.520 308.365,34.536 310.125,34.196 310.875 C 34.164 310.944,108.023 311.000,198.326 311.000 L 362.514 311.000 362.057 310.208 C 361.805 309.773,361.550 309.379,361.490 309.333 C 361.430 309.287,361.217 308.878,361.017 308.422 C 360.817 307.967,360.593 307.555,360.519 307.506 C 360.445 307.457,359.845 306.449,359.185 305.266 C 358.526 304.084,357.848 302.921,357.679 302.683 C 357.509 302.445,357.051 301.650,356.661 300.917 C 356.271 300.183,355.707 299.208,355.409 298.750 C 355.111 298.292,354.728 297.640,354.558 297.303 C 354.072 296.334,352.958 294.425,352.825 294.333 C 352.758 294.287,352.581 293.955,352.431 293.594 C 352.280 293.233,351.898 292.546,351.581 292.068 C 351.263 291.590,350.690 290.610,350.306 289.891 C 349.922 289.172,349.402 288.278,349.149 287.904 C 348.897 287.530,348.374 286.630,347.988 285.904 C 347.601 285.178,347.035 284.204,346.730 283.740 C 346.425 283.276,346.057 282.612,345.912 282.264 C 345.767 281.917,345.571 281.546,345.477 281.441 C 345.189 281.118,344.037 279.128,343.654 278.292 L 343.292 277.500 217.729 277.500 C 148.670 277.500,92.167 277.457,92.167 277.404 C 92.167 277.351,92.484 276.770,92.872 276.112 C 93.260 275.455,93.707 274.635,93.865 274.291 C 94.022 273.946,94.333 273.421,94.556 273.124 C 94.778 272.827,95.280 271.983,95.670 271.250 C 96.060 270.517,96.622 269.542,96.920 269.083 C 97.218 268.625,97.723 267.762,98.042 267.167 C 98.361 266.571,98.858 265.708,99.145 265.250 C 99.433 264.792,99.868 264.004,100.111 263.500 C 100.355 262.996,100.605 262.546,100.667 262.500 C 100.832 262.377,102.196 260.022,102.547 259.255 C 102.714 258.891,103.023 258.366,103.233 258.088 C 103.444 257.810,103.899 257.058,104.244 256.417 C 105.126 254.776,105.715 253.764,105.846 253.667 C 105.907 253.621,106.170 253.171,106.429 252.667 C 106.689 252.162,107.338 251.020,107.871 250.127 C 108.404 249.234,108.914 248.310,109.004 248.074 C 109.094 247.837,109.346 247.405,109.565 247.114 C 109.784 246.822,110.321 245.908,110.758 245.083 C 111.195 244.258,111.717 243.358,111.918 243.083 C 112.119 242.808,112.606 241.983,113.000 241.250 C 113.777 239.803,113.943 239.521,114.779 238.222 C 115.084 237.748,115.333 237.310,115.333 237.248 C 115.333 237.186,115.858 236.255,116.500 235.178 C 117.142 234.101,117.667 233.144,117.667 233.052 C 117.667 232.959,117.878 232.591,118.137 232.233 C 118.396 231.876,119.083 230.721,119.663 229.667 C 120.244 228.612,120.771 227.713,120.836 227.667 C 120.900 227.621,121.275 226.983,121.668 226.250 C 122.061 225.517,122.681 224.429,123.045 223.833 C 123.409 223.237,123.912 222.375,124.163 221.917 C 124.415 221.458,124.968 220.496,125.393 219.778 C 125.819 219.060,126.167 218.411,126.167 218.336 C 126.167 218.261,126.436 217.800,126.765 217.310 C 127.095 216.821,127.803 215.626,128.339 214.656 C 128.875 213.686,129.581 212.487,129.907 211.991 C 130.233 211.496,130.500 211.036,130.500 210.969 C 130.500 210.901,130.923 210.150,131.440 209.298 C 131.957 208.447,132.487 207.525,132.617 207.250 C 132.748 206.975,132.924 206.637,133.009 206.500 C 134.342 204.345,134.829 203.504,135.267 202.596 C 135.441 202.236,135.664 201.860,135.762 201.762 C 135.861 201.663,136.415 200.720,136.993 199.666 C 137.571 198.612,138.138 197.637,138.252 197.500 C 138.366 197.362,139.002 196.277,139.664 195.087 C 140.327 193.898,141.011 192.744,141.184 192.523 C 141.358 192.302,141.500 192.008,141.500 191.868 C 141.500 191.729,141.674 191.383,141.886 191.099 C 142.099 190.815,142.526 190.133,142.835 189.583 C 143.144 189.033,143.458 188.558,143.532 188.528 C 143.606 188.497,143.667 188.346,143.667 188.191 C 143.667 188.036,143.938 187.498,144.271 186.996 C 144.603 186.494,145.247 185.408,145.703 184.583 C 146.158 183.758,146.813 182.633,147.157 182.083 C 147.767 181.110,149.241 178.562,150.250 176.739 C 150.525 176.242,151.023 175.366,151.357 174.793 C 151.691 174.219,152.205 173.300,152.499 172.750 C 152.793 172.200,153.131 171.637,153.249 171.500 C 153.368 171.362,153.896 170.462,154.424 169.500 C 154.951 168.537,155.519 167.555,155.685 167.317 C 155.851 167.079,156.526 165.916,157.185 164.734 C 157.845 163.551,158.439 162.546,158.507 162.500 C 158.574 162.454,158.752 162.121,158.903 161.760 C 159.053 161.399,159.425 160.724,159.730 160.260 C 160.035 159.796,160.601 158.822,160.988 158.096 C 161.374 157.370,161.897 156.470,162.149 156.096 C 162.401 155.722,162.931 154.817,163.327 154.083 C 163.722 153.350,164.287 152.375,164.581 151.917 C 165.177 150.987,167.082 147.649,167.558 146.698 C 167.728 146.360,168.111 145.708,168.409 145.250 C 168.707 144.792,169.271 143.817,169.661 143.083 C 170.051 142.350,170.509 141.555,170.679 141.317 C 170.848 141.079,171.526 139.916,172.185 138.734 C 172.845 137.551,173.440 136.546,173.508 136.500 C 173.576 136.454,173.808 136.067,174.024 135.639 C 174.692 134.316,175.844 132.346,176.009 132.244 C 176.096 132.191,176.167 132.033,176.167 131.894 C 176.167 131.755,176.491 131.141,176.886 130.529 C 177.282 129.917,177.931 128.817,178.328 128.083 C 178.725 127.350,179.289 126.375,179.583 125.917 C 180.096 125.114,181.712 122.310,182.750 120.423 C 183.025 119.923,183.624 118.892,184.081 118.132 C 184.538 117.372,185.003 116.544,185.115 116.292 C 185.226 116.040,185.534 115.515,185.800 115.125 C 186.065 114.735,186.714 113.629,187.242 112.667 C 187.770 111.704,188.296 110.804,188.411 110.667 C 188.526 110.529,188.903 109.892,189.250 109.250 C 189.597 108.608,190.114 107.690,190.399 107.209 C 190.684 106.728,191.142 105.924,191.417 105.424 C 191.692 104.924,192.286 103.892,192.738 103.132 C 193.190 102.372,193.777 101.337,194.042 100.833 C 194.308 100.329,194.622 99.804,194.740 99.667 C 194.859 99.529,195.427 98.554,196.004 97.500 C 196.580 96.446,197.103 95.546,197.165 95.500 C 197.227 95.454,197.563 94.892,197.911 94.250 C 198.903 92.420,199.369 91.623,199.763 91.083 C 199.964 90.808,200.184 90.396,200.253 90.167 C 200.323 89.938,200.580 89.450,200.825 89.083 C 201.352 88.297,202.029 87.130,202.705 85.844 C 202.973 85.334,203.289 84.804,203.407 84.667 C 203.525 84.529,204.092 83.554,204.667 82.500 C 205.241 81.446,205.804 80.471,205.917 80.333 C 206.031 80.196,206.368 79.633,206.666 79.083 C 206.964 78.533,207.611 77.402,208.104 76.569 C 208.597 75.736,209.000 74.997,209.000 74.926 C 209.000 74.856,209.220 74.472,209.490 74.073 C 209.759 73.674,210.446 72.500,211.016 71.465 C 211.586 70.430,212.103 69.546,212.167 69.500 C 212.230 69.454,212.753 68.554,213.330 67.500 C 213.906 66.446,214.471 65.471,214.585 65.333 C 214.700 65.196,215.077 64.558,215.425 63.917 C 215.772 63.275,216.381 62.211,216.778 61.553 C 217.653 60.102,217.659 59.982,216.895 58.830 C 216.562 58.327,215.898 57.204,215.419 56.333 C 214.941 55.462,214.238 54.270,213.858 53.682 C 213.478 53.095,213.167 52.563,213.167 52.500 C 213.167 52.437,212.680 51.567,212.084 50.568 C 211.489 49.568,211.001 48.682,211.001 48.599 C 211.000 48.516,210.827 48.216,210.615 47.932 C 210.173 47.341,208.833 45.028,208.833 44.857 C 208.833 44.794,208.561 44.332,208.228 43.830 C 207.895 43.327,207.213 42.170,206.713 41.258 C 206.212 40.346,205.596 39.296,205.342 38.925 C 205.088 38.554,204.720 37.912,204.524 37.500 C 204.328 37.087,203.938 36.383,203.658 35.933 C 203.377 35.484,202.853 34.572,202.494 33.906 C 202.135 33.240,201.625 32.370,201.361 31.973 C 201.096 31.575,200.580 30.688,200.215 30.000 C 199.849 29.313,199.247 28.283,198.877 27.712 L 198.204 26.673 197.144 28.513 M226.912 77.395 C 226.745 77.682,226.559 77.954,226.498 78.000 C 226.438 78.046,226.189 78.496,225.945 79.000 C 225.702 79.504,225.167 80.442,224.756 81.083 C 224.345 81.725,223.963 82.362,223.906 82.500 C 223.682 83.049,223.088 84.111,222.742 84.583 C 222.541 84.858,222.061 85.683,221.675 86.417 C 221.289 87.150,220.709 88.162,220.387 88.667 C 219.777 89.620,218.056 92.609,217.333 93.970 C 217.104 94.402,216.721 95.054,216.483 95.419 C 216.244 95.785,215.688 96.758,215.248 97.583 C 214.807 98.408,214.281 99.308,214.078 99.583 C 213.876 99.858,213.394 100.683,213.008 101.417 C 212.622 102.150,212.044 103.162,211.722 103.667 C 210.781 105.144,209.041 108.176,208.580 109.145 C 208.345 109.637,207.977 110.275,207.762 110.562 C 207.547 110.849,207.016 111.758,206.581 112.583 C 206.146 113.408,205.624 114.308,205.422 114.583 C 205.219 114.858,204.694 115.758,204.255 116.583 C 203.816 117.408,203.217 118.458,202.924 118.917 C 202.176 120.089,200.361 123.258,199.876 124.240 C 199.652 124.693,199.297 125.293,199.087 125.573 C 198.877 125.854,198.349 126.758,197.914 127.583 C 197.479 128.408,196.957 129.308,196.754 129.583 C 196.550 129.858,196.124 130.571,195.806 131.167 C 195.487 131.762,194.970 132.681,194.655 133.207 C 194.341 133.733,193.858 134.569,193.583 135.064 C 193.308 135.560,192.710 136.592,192.254 137.357 C 191.798 138.123,191.288 139.048,191.121 139.412 C 190.954 139.776,190.644 140.301,190.433 140.579 C 190.222 140.856,189.730 141.683,189.339 142.417 C 188.488 144.012,187.975 144.887,187.822 145.000 C 187.760 145.046,187.497 145.496,187.237 146.000 C 186.978 146.504,186.329 147.647,185.796 148.540 C 185.263 149.432,184.753 150.356,184.663 150.593 C 184.573 150.829,184.320 151.261,184.101 151.553 C 183.882 151.845,183.346 152.758,182.909 153.583 C 182.472 154.408,181.950 155.308,181.749 155.583 C 181.548 155.858,181.061 156.683,180.667 157.417 C 179.889 158.863,179.723 159.146,178.888 160.445 C 178.583 160.919,178.333 161.357,178.333 161.419 C 178.333 161.480,177.825 162.405,177.204 163.474 C 176.584 164.542,175.965 165.616,175.829 165.859 C 175.694 166.103,175.273 166.815,174.894 167.443 C 174.515 168.070,173.927 169.108,173.588 169.749 C 173.249 170.390,172.915 170.953,172.845 170.999 C 172.775 171.045,172.261 171.914,171.702 172.929 C 171.143 173.944,170.419 175.180,170.093 175.675 C 169.767 176.171,169.500 176.627,169.500 176.691 C 169.500 176.826,168.102 179.216,167.647 179.859 C 167.474 180.102,167.333 180.410,167.333 180.542 C 167.333 180.675,167.124 181.076,166.868 181.433 C 166.331 182.184,165.790 183.106,164.922 184.750 C 164.583 185.392,164.208 186.029,164.088 186.167 C 163.967 186.304,163.436 187.204,162.907 188.167 C 162.379 189.129,161.696 190.291,161.390 190.748 C 161.084 191.205,160.833 191.637,160.833 191.708 C 160.833 191.778,160.416 192.529,159.906 193.377 C 158.735 195.322,158.763 195.273,158.328 196.167 C 158.128 196.579,157.907 196.954,157.839 197.000 C 157.770 197.046,157.246 197.946,156.674 199.000 C 156.102 200.054,155.537 201.029,155.418 201.167 C 155.299 201.304,154.770 202.204,154.242 203.167 C 153.714 204.129,153.078 205.217,152.830 205.583 C 152.581 205.950,152.214 206.588,152.015 207.000 C 151.628 207.798,151.224 208.490,150.488 209.609 C 150.237 209.990,149.977 210.478,149.910 210.693 C 149.842 210.908,149.470 211.571,149.083 212.167 C 148.696 212.762,148.171 213.662,147.917 214.167 C 147.663 214.671,147.102 215.646,146.671 216.333 C 145.922 217.527,144.489 219.990,143.417 221.928 C 142.347 223.861,141.605 225.086,141.472 225.139 C 141.396 225.169,141.333 225.319,141.332 225.472 C 141.332 225.625,140.989 226.275,140.571 226.917 C 140.153 227.558,139.581 228.533,139.300 229.083 C 139.019 229.633,138.436 230.646,138.004 231.333 C 137.088 232.792,135.466 235.604,134.750 236.972 C 134.475 237.497,134.056 238.225,133.819 238.589 C 133.581 238.952,133.070 239.844,132.682 240.571 C 132.294 241.297,131.767 242.197,131.511 242.571 C 131.254 242.944,130.837 243.662,130.583 244.167 C 130.329 244.671,129.769 245.646,129.337 246.333 C 128.906 247.021,128.116 248.371,127.581 249.333 C 127.047 250.296,126.556 251.121,126.490 251.167 C 126.425 251.213,126.252 251.535,126.107 251.883 C 125.870 252.453,125.298 253.422,124.208 255.103 C 124.002 255.421,123.833 255.759,123.833 255.853 C 123.833 255.948,123.509 256.526,123.114 257.137 C 122.718 257.749,122.077 258.831,121.689 259.542 L 120.985 260.833 227.229 260.833 L 333.473 260.833 332.638 259.292 C 332.178 258.444,331.704 257.637,331.584 257.500 C 331.464 257.362,330.939 256.466,330.418 255.508 C 329.896 254.550,329.262 253.463,329.008 253.091 C 328.754 252.720,328.489 252.229,328.420 252.000 C 328.351 251.771,328.201 251.471,328.087 251.333 C 327.818 251.010,326.262 248.339,326.119 247.956 C 326.058 247.795,325.680 247.157,325.277 246.540 C 324.875 245.922,324.338 245.004,324.083 244.500 C 323.829 243.996,323.304 243.096,322.917 242.500 C 322.529 241.904,322.067 241.117,321.890 240.750 C 321.454 239.850,320.682 238.527,320.237 237.917 C 320.036 237.642,319.816 237.229,319.747 237.000 C 319.679 236.771,319.492 236.396,319.332 236.167 C 318.907 235.559,317.586 233.299,317.454 232.956 C 317.393 232.795,317.015 232.157,316.616 231.540 C 316.217 230.922,315.522 229.723,315.072 228.875 L 314.254 227.333 246.711 227.333 C 195.510 227.333,179.167 227.286,179.167 227.140 C 179.167 226.936,179.975 225.476,180.166 225.333 C 180.228 225.287,180.478 224.838,180.722 224.333 C 180.966 223.829,181.395 223.049,181.676 222.600 C 181.956 222.151,182.480 221.239,182.839 220.573 C 183.198 219.907,183.709 219.037,183.974 218.640 C 184.240 218.242,184.778 217.317,185.171 216.583 C 185.564 215.850,186.126 214.875,186.419 214.417 C 186.933 213.615,188.372 211.129,189.417 209.238 C 189.692 208.740,190.174 207.902,190.488 207.375 C 190.803 206.848,191.279 206.004,191.548 205.500 C 191.816 204.996,192.280 204.208,192.579 203.750 C 192.877 203.292,193.443 202.317,193.837 201.583 C 194.230 200.850,194.792 199.875,195.086 199.417 C 195.750 198.381,197.416 195.484,198.083 194.206 C 198.358 193.679,198.795 192.922,199.054 192.525 C 199.313 192.127,199.830 191.227,200.204 190.526 C 200.578 189.824,201.087 188.950,201.335 188.583 C 201.583 188.217,202.107 187.317,202.499 186.583 C 202.891 185.850,203.451 184.875,203.743 184.417 C 204.430 183.339,206.283 180.109,206.707 179.250 C 206.888 178.883,207.282 178.208,207.583 177.750 C 207.883 177.291,208.449 176.320,208.840 175.591 C 209.230 174.863,209.876 173.762,210.275 173.146 C 210.674 172.529,211.000 171.978,211.000 171.921 C 211.000 171.768,212.544 169.098,212.693 168.994 C 212.763 168.945,212.975 168.570,213.165 168.161 C 213.354 167.752,213.916 166.755,214.414 165.945 C 214.912 165.136,215.362 164.338,215.415 164.170 C 215.469 164.003,215.820 163.390,216.197 162.808 C 216.574 162.226,217.183 161.188,217.550 160.500 C 217.917 159.813,218.544 158.748,218.942 158.134 C 219.341 157.520,219.667 156.965,219.667 156.901 C 219.667 156.837,220.192 155.906,220.833 154.833 C 221.475 153.760,222.000 152.823,222.000 152.750 C 222.000 152.677,222.262 152.224,222.582 151.742 C 222.901 151.260,223.477 150.277,223.861 149.558 C 224.245 148.839,224.765 147.944,225.017 147.571 C 225.270 147.197,225.793 146.297,226.180 145.571 C 226.568 144.844,227.211 143.748,227.609 143.134 C 228.007 142.520,228.333 141.965,228.333 141.901 C 228.333 141.837,228.858 140.906,229.500 139.833 C 230.142 138.760,230.667 137.823,230.667 137.750 C 230.667 137.677,230.921 137.235,231.231 136.767 C 231.541 136.299,232.224 135.129,232.747 134.167 C 233.271 133.204,233.797 132.304,233.917 132.167 C 234.036 132.029,234.600 131.060,235.170 130.014 C 235.739 128.967,236.422 127.812,236.686 127.447 C 236.950 127.082,237.167 126.724,237.167 126.651 C 237.167 126.459,239.004 123.351,239.182 123.240 C 239.265 123.189,239.333 123.028,239.333 122.882 C 239.333 122.736,239.698 122.047,240.144 121.350 C 240.590 120.653,241.163 119.671,241.417 119.167 C 241.671 118.662,242.193 117.763,242.576 117.167 C 242.960 116.571,243.633 115.408,244.072 114.583 C 244.511 113.758,244.972 112.968,245.096 112.827 C 245.220 112.686,245.583 112.068,245.903 111.455 L 246.484 110.339 246.045 109.378 C 245.803 108.849,245.525 108.333,245.428 108.230 C 245.330 108.128,244.875 107.353,244.417 106.508 C 243.958 105.664,243.332 104.585,243.024 104.112 C 242.716 103.638,242.014 102.425,241.464 101.417 C 240.913 100.408,240.407 99.546,240.337 99.500 C 240.268 99.454,239.853 98.742,239.415 97.917 C 238.976 97.092,238.291 95.908,237.892 95.286 C 237.493 94.665,237.167 94.073,237.167 93.970 C 237.167 93.868,236.911 93.399,236.598 92.927 C 236.284 92.455,235.645 91.364,235.176 90.501 C 234.707 89.638,234.223 88.816,234.099 88.674 C 233.975 88.533,233.408 87.554,232.838 86.500 C 232.267 85.446,231.703 84.471,231.583 84.333 C 231.464 84.196,230.939 83.299,230.418 82.341 C 229.896 81.383,229.262 80.296,229.008 79.925 C 228.754 79.554,228.493 79.081,228.428 78.875 C 228.364 78.669,228.064 78.134,227.763 77.686 L 227.215 76.872 226.912 77.395 M255.894 127.552 C 255.526 128.113,254.619 129.686,254.097 130.667 C 253.927 130.987,253.545 131.625,253.250 132.083 C 252.954 132.542,252.392 133.517,252.000 134.250 C 251.609 134.983,251.151 135.778,250.984 136.016 C 250.817 136.255,250.141 137.417,249.481 138.600 C 248.822 139.782,248.222 140.790,248.148 140.839 C 248.074 140.888,247.890 141.226,247.740 141.589 C 247.591 141.953,247.221 142.625,246.919 143.083 C 246.618 143.542,246.051 144.517,245.660 145.250 C 245.269 145.983,244.746 146.883,244.498 147.250 C 244.250 147.617,243.726 148.517,243.334 149.250 C 242.942 149.983,242.381 150.958,242.086 151.417 C 241.491 152.344,239.587 155.681,239.108 156.635 C 238.939 156.973,238.554 157.625,238.252 158.083 C 237.951 158.542,237.384 159.513,236.994 160.242 C 236.603 160.971,235.957 162.071,235.558 162.688 C 235.160 163.304,234.833 163.855,234.833 163.912 C 234.833 164.032,233.331 166.667,233.121 166.917 C 232.950 167.119,230.872 170.781,230.442 171.637 C 230.273 171.974,229.780 172.813,229.348 173.500 C 228.915 174.188,228.350 175.162,228.091 175.667 C 227.833 176.171,227.294 177.086,226.894 177.699 C 226.494 178.313,226.167 178.861,226.167 178.916 C 226.167 179.046,224.633 181.725,224.497 181.833 C 224.383 181.924,223.982 182.666,223.686 183.333 C 223.585 183.563,223.092 184.387,222.590 185.167 C 222.089 185.946,221.676 186.665,221.673 186.766 C 221.669 186.866,221.356 187.429,220.975 188.016 C 220.595 188.603,219.892 189.796,219.414 190.667 C 218.936 191.537,218.272 192.661,217.939 193.163 C 217.606 193.665,217.333 194.127,217.333 194.190 C 217.333 194.352,216.009 196.652,215.571 197.250 C 215.370 197.525,215.150 197.938,215.083 198.167 C 215.016 198.396,214.869 198.696,214.757 198.833 C 214.466 199.190,213.472 200.886,212.754 202.250 C 212.416 202.892,212.040 203.529,211.919 203.667 C 211.798 203.804,211.231 204.779,210.659 205.833 C 210.087 206.887,209.563 207.787,209.494 207.833 C 209.425 207.879,209.058 208.498,208.678 209.208 L 207.986 210.500 227.307 210.500 L 246.628 210.500 246.873 210.125 C 247.007 209.919,247.438 209.150,247.831 208.417 C 248.224 207.683,248.788 206.708,249.086 206.250 C 249.383 205.792,249.830 205.042,250.080 204.583 C 250.331 204.125,250.808 203.281,251.143 202.709 C 251.477 202.136,251.975 201.262,252.250 200.768 C 252.525 200.273,253.120 199.242,253.571 198.476 C 254.023 197.710,254.592 196.708,254.836 196.250 C 255.079 195.792,255.479 195.125,255.723 194.768 C 255.967 194.412,256.167 194.056,256.167 193.977 C 256.167 193.897,264.821 193.833,275.519 193.833 L 294.872 193.833 294.609 193.433 C 294.465 193.212,294.111 192.593,293.824 192.058 C 293.536 191.522,293.057 190.708,292.758 190.250 C 292.460 189.792,291.856 188.742,291.417 187.917 C 290.978 187.092,290.444 186.188,290.231 185.907 C 290.018 185.627,289.692 185.065,289.506 184.657 C 289.321 184.250,288.833 183.392,288.422 182.750 C 288.012 182.108,287.449 181.133,287.172 180.583 C 286.895 180.033,286.296 178.983,285.841 178.250 C 285.387 177.517,285.011 176.856,285.007 176.783 C 285.003 176.709,284.673 176.147,284.273 175.533 C 283.873 174.919,283.186 173.742,282.746 172.917 C 282.307 172.092,281.781 171.192,281.578 170.917 C 281.376 170.642,280.854 169.742,280.419 168.917 C 279.984 168.092,279.453 167.182,279.238 166.895 C 279.023 166.608,278.655 165.970,278.420 165.478 C 277.959 164.510,276.219 161.477,275.278 160.000 C 274.956 159.496,274.378 158.483,273.992 157.750 C 273.606 157.017,273.124 156.192,272.922 155.917 C 272.719 155.642,272.195 154.742,271.756 153.917 C 271.317 153.092,270.748 152.102,270.491 151.718 C 270.234 151.333,269.867 150.696,269.676 150.301 C 269.268 149.461,267.452 146.319,266.611 145.000 C 266.290 144.496,265.711 143.483,265.325 142.750 C 264.939 142.017,264.459 141.192,264.258 140.917 C 263.907 140.438,263.307 139.360,263.096 138.833 C 263.041 138.696,262.662 138.058,262.254 137.417 C 261.845 136.775,261.318 135.840,261.082 135.339 C 260.846 134.838,260.590 134.388,260.512 134.339 C 260.435 134.290,259.940 133.462,259.412 132.500 C 258.884 131.537,258.207 130.375,257.908 129.917 C 257.608 129.458,257.123 128.633,256.830 128.083 C 256.537 127.533,256.285 127.069,256.270 127.052 C 256.255 127.034,256.086 127.259,255.894 127.552 " stroke="none" fill="#ffffff" fill-rule="evenodd"></path><path id="path2" d="M197.144 28.513 C 196.561 29.525,195.858 30.758,195.583 31.254 C 195.308 31.750,194.850 32.552,194.566 33.036 C 194.281 33.520,193.764 34.442,193.417 35.083 C 193.070 35.725,192.692 36.362,192.578 36.500 C 192.463 36.637,191.937 37.537,191.410 38.500 C 190.882 39.462,190.315 40.445,190.149 40.683 C 189.983 40.921,189.307 42.084,188.648 43.266 C 187.989 44.449,187.389 45.457,187.314 45.506 C 187.240 45.555,187.057 45.892,186.907 46.256 C 186.757 46.619,186.391 47.292,186.092 47.750 C 185.794 48.208,185.227 49.183,184.832 49.917 C 184.438 50.650,183.915 51.550,183.671 51.917 C 183.426 52.283,182.902 53.183,182.507 53.917 C 182.111 54.650,181.546 55.625,181.252 56.083 C 180.656 57.013,178.751 60.351,178.275 61.302 C 178.106 61.640,177.723 62.292,177.425 62.750 C 177.127 63.208,176.560 64.183,176.166 64.917 C 175.771 65.650,175.247 66.550,175.001 66.917 C 174.755 67.283,174.269 68.108,173.922 68.750 C 173.010 70.434,172.448 71.405,172.329 71.500 C 172.217 71.589,171.758 72.421,171.592 72.833 C 171.537 72.971,171.120 73.683,170.666 74.417 C 170.211 75.150,169.689 76.072,169.506 76.466 C 169.322 76.860,168.957 77.498,168.695 77.883 C 168.433 78.268,167.803 79.333,167.297 80.250 C 166.790 81.167,166.104 82.327,165.771 82.830 C 165.439 83.332,165.167 83.794,165.167 83.857 C 165.167 84.018,163.842 86.318,163.404 86.917 C 163.203 87.192,162.984 87.604,162.916 87.833 C 162.849 88.063,162.701 88.362,162.587 88.500 C 162.308 88.837,160.968 91.136,160.717 91.708 C 160.607 91.960,160.299 92.485,160.034 92.875 C 159.768 93.265,159.137 94.333,158.630 95.250 C 158.123 96.167,157.437 97.327,157.104 97.830 C 156.772 98.332,156.500 98.794,156.500 98.857 C 156.500 99.018,155.176 101.318,154.738 101.917 C 154.537 102.192,154.317 102.604,154.250 102.833 C 154.182 103.063,154.034 103.362,153.920 103.500 C 153.675 103.796,152.489 105.837,151.798 107.152 C 151.529 107.664,151.209 108.196,151.087 108.333 C 150.965 108.471,150.398 109.446,149.826 110.500 C 149.254 111.554,148.730 112.454,148.662 112.500 C 148.594 112.546,148.257 113.108,147.914 113.750 C 146.949 115.554,146.010 117.141,145.849 117.240 C 145.769 117.290,145.653 117.530,145.592 117.774 C 145.531 118.018,145.272 118.525,145.016 118.901 C 144.761 119.276,144.119 120.371,143.591 121.333 C 143.063 122.296,142.534 123.196,142.415 123.333 C 142.296 123.471,141.733 124.440,141.164 125.486 C 140.594 126.533,139.912 127.688,139.647 128.053 C 139.383 128.418,139.167 128.775,139.167 128.845 C 139.167 129.010,137.540 131.836,137.255 132.167 C 137.137 132.304,136.984 132.604,136.915 132.833 C 136.847 133.063,136.580 133.566,136.323 133.951 C 136.065 134.337,135.388 135.500,134.818 136.535 C 134.248 137.570,133.726 138.454,133.659 138.500 C 133.592 138.546,133.069 139.446,132.497 140.500 C 131.924 141.554,131.241 142.713,130.978 143.075 C 130.715 143.436,130.500 143.797,130.500 143.875 C 130.500 144.083,128.632 147.240,128.470 147.306 C 128.395 147.336,128.333 147.488,128.333 147.643 C 128.333 147.798,128.066 148.329,127.740 148.825 C 127.414 149.320,126.690 150.556,126.130 151.571 C 125.571 152.586,124.950 153.642,124.749 153.917 C 124.549 154.192,124.030 155.084,123.595 155.900 C 123.161 156.715,122.549 157.755,122.236 158.210 C 121.923 158.665,121.667 159.105,121.667 159.187 C 121.667 159.269,121.250 160.029,120.740 160.877 C 119.718 162.574,119.706 162.595,119.158 163.667 C 118.947 164.079,118.728 164.454,118.671 164.500 C 118.548 164.599,117.915 165.688,117.171 167.083 C 116.877 167.633,116.392 168.458,116.092 168.917 C 115.793 169.375,115.116 170.537,114.588 171.500 C 114.060 172.463,113.565 173.290,113.488 173.339 C 113.410 173.388,113.155 173.838,112.921 174.339 C 112.686 174.840,112.160 175.775,111.752 176.417 C 111.343 177.058,110.963 177.696,110.908 177.833 C 110.714 178.315,110.283 179.090,109.750 179.917 C 109.454 180.375,108.891 181.350,108.500 182.083 C 108.108 182.817,107.584 183.717,107.335 184.083 C 107.086 184.450,106.450 185.537,105.922 186.500 C 105.394 187.463,104.899 188.290,104.821 188.339 C 104.744 188.388,104.488 188.838,104.254 189.339 C 104.020 189.840,103.494 190.775,103.085 191.417 C 102.676 192.058,102.297 192.696,102.241 192.833 C 102.047 193.314,101.616 194.090,101.083 194.917 C 100.787 195.375,100.266 196.275,99.925 196.917 C 99.584 197.558,99.042 198.496,98.719 199.000 C 98.035 200.072,96.301 203.092,95.583 204.463 C 95.308 204.989,94.872 205.744,94.613 206.142 C 94.354 206.540,93.838 207.439,93.466 208.141 C 93.094 208.843,92.624 209.642,92.422 209.917 C 92.219 210.192,91.693 211.092,91.253 211.917 C 90.436 213.446,90.001 214.184,89.827 214.333 C 89.774 214.379,89.368 215.092,88.926 215.917 C 88.483 216.742,87.831 217.863,87.477 218.408 C 87.123 218.953,86.833 219.482,86.833 219.583 C 86.833 219.684,86.534 220.228,86.168 220.791 C 85.802 221.354,85.192 222.400,84.813 223.116 C 84.434 223.831,83.958 224.642,83.755 224.917 C 83.553 225.192,83.027 226.092,82.588 226.917 C 82.149 227.742,81.550 228.792,81.258 229.250 C 80.560 230.343,78.724 233.546,78.244 234.508 C 78.035 234.925,77.483 235.862,77.016 236.591 C 76.549 237.320,76.167 237.969,76.167 238.033 C 76.167 238.184,74.979 240.225,74.828 240.333 C 74.764 240.379,74.352 241.092,73.913 241.917 C 73.474 242.742,72.789 243.919,72.391 244.533 C 71.993 245.147,71.667 245.755,71.667 245.885 C 71.667 246.015,71.531 246.301,71.366 246.519 C 70.864 247.183,69.500 249.451,69.500 249.622 C 69.500 249.710,69.189 250.262,68.809 250.849 C 68.428 251.436,67.708 252.667,67.207 253.583 C 66.706 254.500,66.240 255.287,66.171 255.333 C 66.101 255.379,65.686 256.092,65.248 256.917 C 64.810 257.742,64.133 258.912,63.744 259.518 C 63.356 260.123,62.983 260.798,62.916 261.018 C 62.849 261.237,62.702 261.529,62.590 261.667 C 62.259 262.073,60.833 264.499,60.833 264.656 C 60.833 264.735,60.563 265.201,60.232 265.692 C 59.902 266.182,59.182 267.408,58.633 268.417 C 58.083 269.425,57.536 270.362,57.416 270.500 C 57.296 270.637,56.880 271.350,56.491 272.083 C 56.103 272.817,55.466 273.912,55.078 274.518 C 54.689 275.123,54.317 275.790,54.250 276.000 C 54.183 276.210,53.810 276.877,53.420 277.482 C 53.030 278.088,52.395 279.183,52.008 279.915 C 51.622 280.648,51.248 281.286,51.177 281.332 C 51.106 281.379,50.597 282.242,50.046 283.250 C 49.495 284.258,48.772 285.494,48.439 285.996 C 48.106 286.498,47.833 286.965,47.833 287.033 C 47.833 287.183,46.205 289.982,45.913 290.333 C 45.799 290.471,45.655 290.752,45.592 290.958 C 45.529 291.164,45.089 291.963,44.614 292.734 C 44.139 293.505,43.465 294.648,43.116 295.276 C 42.351 296.651,41.385 298.313,40.370 300.000 C 39.956 300.688,39.395 301.662,39.123 302.167 C 38.454 303.408,37.492 305.028,37.243 305.333 C 37.131 305.471,36.983 305.771,36.913 306.000 C 36.844 306.229,36.470 306.904,36.083 307.500 C 35.520 308.365,34.536 310.125,34.196 310.875 C 34.164 310.944,108.023 311.000,198.326 311.000 L 362.514 311.000 362.057 310.208 C 361.805 309.773,361.550 309.379,361.490 309.333 C 361.430 309.287,361.217 308.878,361.017 308.422 C 360.817 307.967,360.593 307.555,360.519 307.506 C 360.445 307.457,359.845 306.449,359.185 305.266 C 358.526 304.084,357.848 302.921,357.679 302.683 C 357.509 302.445,357.051 301.650,356.661 300.917 C 356.271 300.183,355.707 299.208,355.409 298.750 C 355.111 298.292,354.728 297.640,354.558 297.303 C 354.072 296.334,352.958 294.425,352.825 294.333 C 352.758 294.287,352.581 293.955,352.431 293.594 C 352.280 293.233,351.898 292.546,351.581 292.068 C 351.263 291.590,350.690 290.610,350.306 289.891 C 349.922 289.172,349.402 288.278,349.149 287.904 C 348.897 287.530,348.374 286.630,347.988 285.904 C 347.601 285.178,347.035 284.204,346.730 283.740 C 346.425 283.276,346.057 282.612,345.912 282.264 C 345.767 281.917,345.571 281.546,345.477 281.441 C 345.189 281.118,344.037 279.128,343.654 278.292 L 343.292 277.500 217.729 277.500 C 148.670 277.500,92.167 277.457,92.167 277.404 C 92.167 277.351,92.484 276.770,92.872 276.112 C 93.260 275.455,93.707 274.635,93.865 274.291 C 94.022 273.946,94.333 273.421,94.556 273.124 C 94.778 272.827,95.280 271.983,95.670 271.250 C 96.060 270.517,96.622 269.542,96.920 269.083 C 97.218 268.625,97.723 267.762,98.042 267.167 C 98.361 266.571,98.858 265.708,99.145 265.250 C 99.433 264.792,99.868 264.004,100.111 263.500 C 100.355 262.996,100.605 262.546,100.667 262.500 C 100.832 262.377,102.196 260.022,102.547 259.255 C 102.714 258.891,103.023 258.366,103.233 258.088 C 103.444 257.810,103.899 257.058,104.244 256.417 C 105.126 254.776,105.715 253.764,105.846 253.667 C 105.907 253.621,106.170 253.171,106.429 252.667 C 106.689 252.162,107.338 251.020,107.871 250.127 C 108.404 249.234,108.914 248.310,109.004 248.074 C 109.094 247.837,109.346 247.405,109.565 247.114 C 109.784 246.822,110.321 245.908,110.758 245.083 C 111.195 244.258,111.717 243.358,111.918 243.083 C 112.119 242.808,112.606 241.983,113.000 241.250 C 113.777 239.803,113.943 239.521,114.779 238.222 C 115.084 237.748,115.333 237.310,115.333 237.248 C 115.333 237.186,115.858 236.255,116.500 235.178 C 117.142 234.101,117.667 233.144,117.667 233.052 C 117.667 232.959,117.878 232.591,118.137 232.233 C 118.396 231.876,119.083 230.721,119.663 229.667 C 120.244 228.612,120.771 227.713,120.836 227.667 C 120.900 227.621,121.275 226.983,121.668 226.250 C 122.061 225.517,122.681 224.429,123.045 223.833 C 123.409 223.237,123.912 222.375,124.163 221.917 C 124.415 221.458,124.968 220.496,125.393 219.778 C 125.819 219.060,126.167 218.411,126.167 218.336 C 126.167 218.261,126.436 217.800,126.765 217.310 C 127.095 216.821,127.803 215.626,128.339 214.656 C 128.875 213.686,129.581 212.487,129.907 211.991 C 130.233 211.496,130.500 211.036,130.500 210.969 C 130.500 210.901,130.923 210.150,131.440 209.298 C 131.957 208.447,132.487 207.525,132.617 207.250 C 132.748 206.975,132.924 206.637,133.009 206.500 C 134.342 204.345,134.829 203.504,135.267 202.596 C 135.441 202.236,135.664 201.860,135.762 201.762 C 135.861 201.663,136.415 200.720,136.993 199.666 C 137.571 198.612,138.138 197.637,138.252 197.500 C 138.366 197.362,139.002 196.277,139.664 195.087 C 140.327 193.898,141.011 192.744,141.184 192.523 C 141.358 192.302,141.500 192.008,141.500 191.868 C 141.500 191.729,141.674 191.383,141.886 191.099 C 142.099 190.815,142.526 190.133,142.835 189.583 C 143.144 189.033,143.458 188.558,143.532 188.528 C 143.606 188.497,143.667 188.346,143.667 188.191 C 143.667 188.036,143.938 187.498,144.271 186.996 C 144.603 186.494,145.247 185.408,145.703 184.583 C 146.158 183.758,146.813 182.633,147.157 182.083 C 147.767 181.110,149.241 178.562,150.250 176.739 C 150.525 176.242,151.023 175.366,151.357 174.793 C 151.691 174.219,152.205 173.300,152.499 172.750 C 152.793 172.200,153.131 171.637,153.249 171.500 C 153.368 171.362,153.896 170.462,154.424 169.500 C 154.951 168.537,155.519 167.555,155.685 167.317 C 155.851 167.079,156.526 165.916,157.185 164.734 C 157.845 163.551,158.439 162.546,158.507 162.500 C 158.574 162.454,158.752 162.121,158.903 161.760 C 159.053 161.399,159.425 160.724,159.730 160.260 C 160.035 159.796,160.601 158.822,160.988 158.096 C 161.374 157.370,161.897 156.470,162.149 156.096 C 162.401 155.722,162.931 154.817,163.327 154.083 C 163.722 153.350,164.287 152.375,164.581 151.917 C 165.177 150.987,167.082 147.649,167.558 146.698 C 167.728 146.360,168.111 145.708,168.409 145.250 C 168.707 144.792,169.271 143.817,169.661 143.083 C 170.051 142.350,170.509 141.555,170.679 141.317 C 170.848 141.079,171.526 139.916,172.185 138.734 C 172.845 137.551,173.440 136.546,173.508 136.500 C 173.576 136.454,173.808 136.067,174.024 135.639 C 174.692 134.316,175.844 132.346,176.009 132.244 C 176.096 132.191,176.167 132.033,176.167 131.894 C 176.167 131.755,176.491 131.141,176.886 130.529 C 177.282 129.917,177.931 128.817,178.328 128.083 C 178.725 127.350,179.289 126.375,179.583 125.917 C 180.096 125.114,181.712 122.310,182.750 120.423 C 183.025 119.923,183.624 118.892,184.081 118.132 C 184.538 117.372,185.003 116.544,185.115 116.292 C 185.226 116.040,185.534 115.515,185.800 115.125 C 186.065 114.735,186.714 113.629,187.242 112.667 C 187.770 111.704,188.296 110.804,188.411 110.667 C 188.526 110.529,188.903 109.892,189.250 109.250 C 189.597 108.608,190.114 107.690,190.399 107.209 C 190.684 106.728,191.142 105.924,191.417 105.424 C 191.692 104.924,192.286 103.892,192.738 103.132 C 193.190 102.372,193.777 101.337,194.042 100.833 C 194.308 100.329,194.622 99.804,194.740 99.667 C 194.859 99.529,195.427 98.554,196.004 97.500 C 196.580 96.446,197.103 95.546,197.165 95.500 C 197.227 95.454,197.563 94.892,197.911 94.250 C 198.903 92.420,199.369 91.623,199.763 91.083 C 199.964 90.808,200.184 90.396,200.253 90.167 C 200.323 89.938,200.580 89.450,200.825 89.083 C 201.352 88.297,202.029 87.130,202.705 85.844 C 202.973 85.334,203.289 84.804,203.407 84.667 C 203.525 84.529,204.092 83.554,204.667 82.500 C 205.241 81.446,205.804 80.471,205.917 80.333 C 206.031 80.196,206.368 79.633,206.666 79.083 C 206.964 78.533,207.611 77.402,208.104 76.569 C 208.597 75.736,209.000 74.997,209.000 74.926 C 209.000 74.856,209.220 74.472,209.490 74.073 C 209.759 73.674,210.446 72.500,211.016 71.465 C 211.586 70.430,212.103 69.546,212.167 69.500 C 212.230 69.454,212.753 68.554,213.330 67.500 C 213.906 66.446,214.471 65.471,214.585 65.333 C 214.700 65.196,215.077 64.558,215.425 63.917 C 215.772 63.275,216.381 62.211,216.778 61.553 C 217.653 60.102,217.659 59.982,216.895 58.830 C 216.562 58.327,215.898 57.204,215.419 56.333 C 214.941 55.462,214.238 54.270,213.858 53.682 C 213.478 53.095,213.167 52.563,213.167 52.500 C 213.167 52.437,212.680 51.567,212.084 50.568 C 211.489 49.568,211.001 48.682,211.001 48.599 C 211.000 48.516,210.827 48.216,210.615 47.932 C 210.173 47.341,208.833 45.028,208.833 44.857 C 208.833 44.794,208.561 44.332,208.228 43.830 C 207.895 43.327,207.213 42.170,206.713 41.258 C 206.212 40.346,205.596 39.296,205.342 38.925 C 205.088 38.554,204.720 37.912,204.524 37.500 C 204.328 37.087,203.938 36.383,203.658 35.933 C 203.377 35.484,202.853 34.572,202.494 33.906 C 202.135 33.240,201.625 32.370,201.361 31.973 C 201.096 31.575,200.580 30.688,200.215 30.000 C 199.849 29.313,199.247 28.283,198.877 27.712 L 198.204 26.673 197.144 28.513 M226.912 77.395 C 226.745 77.682,226.559 77.954,226.498 78.000 C 226.438 78.046,226.189 78.496,225.945 79.000 C 225.702 79.504,225.167 80.442,224.756 81.083 C 224.345 81.725,223.963 82.362,223.906 82.500 C 223.682 83.049,223.088 84.111,222.742 84.583 C 222.541 84.858,222.061 85.683,221.675 86.417 C 221.289 87.150,220.709 88.162,220.387 88.667 C 219.777 89.620,218.056 92.609,217.333 93.970 C 217.104 94.402,216.721 95.054,216.483 95.419 C 216.244 95.785,215.688 96.758,215.248 97.583 C 214.807 98.408,214.281 99.308,214.078 99.583 C 213.876 99.858,213.394 100.683,213.008 101.417 C 212.622 102.150,212.044 103.162,211.722 103.667 C 210.781 105.144,209.041 108.176,208.580 109.145 C 208.345 109.637,207.977 110.275,207.762 110.562 C 207.547 110.849,207.016 111.758,206.581 112.583 C 206.146 113.408,205.624 114.308,205.422 114.583 C 205.219 114.858,204.694 115.758,204.255 116.583 C 203.816 117.408,203.217 118.458,202.924 118.917 C 202.176 120.089,200.361 123.258,199.876 124.240 C 199.652 124.693,199.297 125.293,199.087 125.573 C 198.877 125.854,198.349 126.758,197.914 127.583 C 197.479 128.408,196.957 129.308,196.754 129.583 C 196.550 129.858,196.124 130.571,195.806 131.167 C 195.487 131.762,194.970 132.681,194.655 133.207 C 194.341 133.733,193.858 134.569,193.583 135.064 C 193.308 135.560,192.710 136.592,192.254 137.357 C 191.798 138.123,191.288 139.048,191.121 139.412 C 190.954 139.776,190.644 140.301,190.433 140.579 C 190.222 140.856,189.730 141.683,189.339 142.417 C 188.488 144.012,187.975 144.887,187.822 145.000 C 187.760 145.046,187.497 145.496,187.237 146.000 C 186.978 146.504,186.329 147.647,185.796 148.540 C 185.263 149.432,184.753 150.356,184.663 150.593 C 184.573 150.829,184.320 151.261,184.101 151.553 C 183.882 151.845,183.346 152.758,182.909 153.583 C 182.472 154.408,181.950 155.308,181.749 155.583 C 181.548 155.858,181.061 156.683,180.667 157.417 C 179.889 158.863,179.723 159.146,178.888 160.445 C 178.583 160.919,178.333 161.357,178.333 161.419 C 178.333 161.480,177.825 162.405,177.204 163.474 C 176.584 164.542,175.965 165.616,175.829 165.859 C 175.694 166.103,175.273 166.815,174.894 167.443 C 174.515 168.070,173.927 169.108,173.588 169.749 C 173.249 170.390,172.915 170.953,172.845 170.999 C 172.775 171.045,172.261 171.914,171.702 172.929 C 171.143 173.944,170.419 175.180,170.093 175.675 C 169.767 176.171,169.500 176.627,169.500 176.691 C 169.500 176.826,168.102 179.216,167.647 179.859 C 167.474 180.102,167.333 180.410,167.333 180.542 C 167.333 180.675,167.124 181.076,166.868 181.433 C 166.331 182.184,165.790 183.106,164.922 184.750 C 164.583 185.392,164.208 186.029,164.088 186.167 C 163.967 186.304,163.436 187.204,162.907 188.167 C 162.379 189.129,161.696 190.291,161.390 190.748 C 161.084 191.205,160.833 191.637,160.833 191.708 C 160.833 191.778,160.416 192.529,159.906 193.377 C 158.735 195.322,158.763 195.273,158.328 196.167 C 158.128 196.579,157.907 196.954,157.839 197.000 C 157.770 197.046,157.246 197.946,156.674 199.000 C 156.102 200.054,155.537 201.029,155.418 201.167 C 155.299 201.304,154.770 202.204,154.242 203.167 C 153.714 204.129,153.078 205.217,152.830 205.583 C 152.581 205.950,152.214 206.588,152.015 207.000 C 151.628 207.798,151.224 208.490,150.488 209.609 C 150.237 209.990,149.977 210.478,149.910 210.693 C 149.842 210.908,149.470 211.571,149.083 212.167 C 148.696 212.762,148.171 213.662,147.917 214.167 C 147.663 214.671,147.102 215.646,146.671 216.333 C 145.922 217.527,144.489 219.990,143.417 221.928 C 142.347 223.861,141.605 225.086,141.472 225.139 C 141.396 225.169,141.333 225.319,141.332 225.472 C 141.332 225.625,140.989 226.275,140.571 226.917 C 140.153 227.558,139.581 228.533,139.300 229.083 C 139.019 229.633,138.436 230.646,138.004 231.333 C 137.088 232.792,135.466 235.604,134.750 236.972 C 134.475 237.497,134.056 238.225,133.819 238.589 C 133.581 238.952,133.070 239.844,132.682 240.571 C 132.294 241.297,131.767 242.197,131.511 242.571 C 131.254 242.944,130.837 243.662,130.583 244.167 C 130.329 244.671,129.769 245.646,129.337 246.333 C 128.906 247.021,128.116 248.371,127.581 249.333 C 127.047 250.296,126.556 251.121,126.490 251.167 C 126.425 251.213,126.252 251.535,126.107 251.883 C 125.870 252.453,125.298 253.422,124.208 255.103 C 124.002 255.421,123.833 255.759,123.833 255.853 C 123.833 255.948,123.509 256.526,123.114 257.137 C 122.718 257.749,122.077 258.831,121.689 259.542 L 120.985 260.833 227.229 260.833 L 333.473 260.833 332.638 259.292 C 332.178 258.444,331.704 257.637,331.584 257.500 C 331.464 257.362,330.939 256.466,330.418 255.508 C 329.896 254.550,329.262 253.463,329.008 253.091 C 328.754 252.720,328.489 252.229,328.420 252.000 C 328.351 251.771,328.201 251.471,328.087 251.333 C 327.818 251.010,326.262 248.339,326.119 247.956 C 326.058 247.795,325.680 247.157,325.277 246.540 C 324.875 245.922,324.338 245.004,324.083 244.500 C 323.829 243.996,323.304 243.096,322.917 242.500 C 322.529 241.904,322.067 241.117,321.890 240.750 C 321.454 239.850,320.682 238.527,320.237 237.917 C 320.036 237.642,319.816 237.229,319.747 237.000 C 319.679 236.771,319.492 236.396,319.332 236.167 C 318.907 235.559,317.586 233.299,317.454 232.956 C 317.393 232.795,317.015 232.157,316.616 231.540 C 316.217 230.922,315.522 229.723,315.072 228.875 L 314.254 227.333 246.711 227.333 C 195.510 227.333,179.167 227.286,179.167 227.140 C 179.167 226.936,179.975 225.476,180.166 225.333 C 180.228 225.287,180.478 224.838,180.722 224.333 C 180.966 223.829,181.395 223.049,181.676 222.600 C 181.956 222.151,182.480 221.239,182.839 220.573 C 183.198 219.907,183.709 219.037,183.974 218.640 C 184.240 218.242,184.778 217.317,185.171 216.583 C 185.564 215.850,186.126 214.875,186.419 214.417 C 186.933 213.615,188.372 211.129,189.417 209.238 C 189.692 208.740,190.174 207.902,190.488 207.375 C 190.803 206.848,191.279 206.004,191.548 205.500 C 191.816 204.996,192.280 204.208,192.579 203.750 C 192.877 203.292,193.443 202.317,193.837 201.583 C 194.230 200.850,194.792 199.875,195.086 199.417 C 195.750 198.381,197.416 195.484,198.083 194.206 C 198.358 193.679,198.795 192.922,199.054 192.525 C 199.313 192.127,199.830 191.227,200.204 190.526 C 200.578 189.824,201.087 188.950,201.335 188.583 C 201.583 188.217,202.107 187.317,202.499 186.583 C 202.891 185.850,203.451 184.875,203.743 184.417 C 204.430 183.339,206.283 180.109,206.707 179.250 C 206.888 178.883,207.282 178.208,207.583 177.750 C 207.883 177.291,208.449 176.320,208.840 175.591 C 209.230 174.863,209.876 173.762,210.275 173.146 C 210.674 172.529,211.000 171.978,211.000 171.921 C 211.000 171.768,212.544 169.098,212.693 168.994 C 212.763 168.945,212.975 168.570,213.165 168.161 C 213.354 167.752,213.916 166.755,214.414 165.945 C 214.912 165.136,215.362 164.338,215.415 164.170 C 215.469 164.003,215.820 163.390,216.197 162.808 C 216.574 162.226,217.183 161.188,217.550 160.500 C 217.917 159.813,218.544 158.748,218.942 158.134 C 219.341 157.520,219.667 156.965,219.667 156.901 C 219.667 156.837,220.192 155.906,220.833 154.833 C 221.475 153.760,222.000 152.823,222.000 152.750 C 222.000 152.677,222.262 152.224,222.582 151.742 C 222.901 151.260,223.477 150.277,223.861 149.558 C 224.245 148.839,224.765 147.944,225.017 147.571 C 225.270 147.197,225.793 146.297,226.180 145.571 C 226.568 144.844,227.211 143.748,227.609 143.134 C 228.007 142.520,228.333 141.965,228.333 141.901 C 228.333 141.837,228.858 140.906,229.500 139.833 C 230.142 138.760,230.667 137.823,230.667 137.750 C 230.667 137.677,230.921 137.235,231.231 136.767 C 231.541 136.299,232.224 135.129,232.747 134.167 C 233.271 133.204,233.797 132.304,233.917 132.167 C 234.036 132.029,234.600 131.060,235.170 130.014 C 235.739 128.967,236.422 127.812,236.686 127.447 C 236.950 127.082,237.167 126.724,237.167 126.651 C 237.167 126.459,239.004 123.351,239.182 123.240 C 239.265 123.189,239.333 123.028,239.333 122.882 C 239.333 122.736,239.698 122.047,240.144 121.350 C 240.590 120.653,241.163 119.671,241.417 119.167 C 241.671 118.662,242.193 117.763,242.576 117.167 C 242.960 116.571,243.633 115.408,244.072 114.583 C 244.511 113.758,244.972 112.968,245.096 112.827 C 245.220 112.686,245.583 112.068,245.903 111.455 L 246.484 110.339 246.045 109.378 C 245.803 108.849,245.525 108.333,245.428 108.230 C 245.330 108.128,244.875 107.353,244.417 106.508 C 243.958 105.664,243.332 104.585,243.024 104.112 C 242.716 103.638,242.014 102.425,241.464 101.417 C 240.913 100.408,240.407 99.546,240.337 99.500 C 240.268 99.454,239.853 98.742,239.415 97.917 C 238.976 97.092,238.291 95.908,237.892 95.286 C 237.493 94.665,237.167 94.073,237.167 93.970 C 237.167 93.868,236.911 93.399,236.598 92.927 C 236.284 92.455,235.645 91.364,235.176 90.501 C 234.707 89.638,234.223 88.816,234.099 88.674 C 233.975 88.533,233.408 87.554,232.838 86.500 C 232.267 85.446,231.703 84.471,231.583 84.333 C 231.464 84.196,230.939 83.299,230.418 82.341 C 229.896 81.383,229.262 80.296,229.008 79.925 C 228.754 79.554,228.493 79.081,228.428 78.875 C 228.364 78.669,228.064 78.134,227.763 77.686 L 227.215 76.872 226.912 77.395 M255.894 127.552 C 255.526 128.113,254.619 129.686,254.097 130.667 C 253.927 130.987,253.545 131.625,253.250 132.083 C 252.954 132.542,252.392 133.517,252.000 134.250 C 251.609 134.983,251.151 135.778,250.984 136.016 C 250.817 136.255,250.141 137.417,249.481 138.600 C 248.822 139.782,248.222 140.790,248.148 140.839 C 248.074 140.888,247.890 141.226,247.740 141.589 C 247.591 141.953,247.221 142.625,246.919 143.083 C 246.618 143.542,246.051 144.517,245.660 145.250 C 245.269 145.983,244.746 146.883,244.498 147.250 C 244.250 147.617,243.726 148.517,243.334 149.250 C 242.942 149.983,242.381 150.958,242.086 151.417 C 241.491 152.344,239.587 155.681,239.108 156.635 C 238.939 156.973,238.554 157.625,238.252 158.083 C 237.951 158.542,237.384 159.513,236.994 160.242 C 236.603 160.971,235.957 162.071,235.558 162.688 C 235.160 163.304,234.833 163.855,234.833 163.912 C 234.833 164.032,233.331 166.667,233.121 166.917 C 232.950 167.119,230.872 170.781,230.442 171.637 C 230.273 171.974,229.780 172.813,229.348 173.500 C 228.915 174.188,228.350 175.162,228.091 175.667 C 227.833 176.171,227.294 177.086,226.894 177.699 C 226.494 178.313,226.167 178.861,226.167 178.916 C 226.167 179.046,224.633 181.725,224.497 181.833 C 224.383 181.924,223.982 182.666,223.686 183.333 C 223.585 183.563,223.092 184.387,222.590 185.167 C 222.089 185.946,221.676 186.665,221.673 186.766 C 221.669 186.866,221.356 187.429,220.975 188.016 C 220.595 188.603,219.892 189.796,219.414 190.667 C 218.936 191.537,218.272 192.661,217.939 193.163 C 217.606 193.665,217.333 194.127,217.333 194.190 C 217.333 194.352,216.009 196.652,215.571 197.250 C 215.370 197.525,215.150 197.938,215.083 198.167 C 215.016 198.396,214.869 198.696,214.757 198.833 C 214.466 199.190,213.472 200.886,212.754 202.250 C 212.416 202.892,212.040 203.529,211.919 203.667 C 211.798 203.804,211.231 204.779,210.659 205.833 C 210.087 206.887,209.563 207.787,209.494 207.833 C 209.425 207.879,209.058 208.498,208.678 209.208 L 207.986 210.500 227.307 210.500 L 246.628 210.500 246.873 210.125 C 247.007 209.919,247.438 209.150,247.831 208.417 C 248.224 207.683,248.788 206.708,249.086 206.250 C 249.383 205.792,249.830 205.042,250.080 204.583 C 250.331 204.125,250.808 203.281,251.143 202.709 C 251.477 202.136,251.975 201.262,252.250 200.768 C 252.525 200.273,253.120 199.242,253.571 198.476 C 254.023 197.710,254.592 196.708,254.836 196.250 C 255.079 195.792,255.479 195.125,255.723 194.768 C 255.967 194.412,256.167 194.056,256.167 193.977 C 256.167 193.897,264.821 193.833,275.519 193.833 L 294.872 193.833 294.609 193.433 C 294.465 193.212,294.111 192.593,293.824 192.058 C 293.536 191.522,293.057 190.708,292.758 190.250 C 292.460 189.792,291.856 188.742,291.417 187.917 C 290.978 187.092,290.444 186.188,290.231 185.907 C 290.018 185.627,289.692 185.065,289.506 184.657 C 289.321 184.250,288.833 183.392,288.422 182.750 C 288.012 182.108,287.449 181.133,287.172 180.583 C 286.895 180.033,286.296 178.983,285.841 178.250 C 285.387 177.517,285.011 176.856,285.007 176.783 C 285.003 176.709,284.673 176.147,284.273 175.533 C 283.873 174.919,283.186 173.742,282.746 172.917 C 282.307 172.092,281.781 171.192,281.578 170.917 C 281.376 170.642,280.854 169.742,280.419 168.917 C 279.984 168.092,279.453 167.182,279.238 166.895 C 279.023 166.608,278.655 165.970,278.420 165.478 C 277.959 164.510,276.219 161.477,275.278 160.000 C 274.956 159.496,274.378 158.483,273.992 157.750 C 273.606 157.017,273.124 156.192,272.922 155.917 C 272.719 155.642,272.195 154.742,271.756 153.917 C 271.317 153.092,270.748 152.102,270.491 151.718 C 270.234 151.333,269.867 150.696,269.676 150.301 C 269.268 149.461,267.452 146.319,266.611 145.000 C 266.290 144.496,265.711 143.483,265.325 142.750 C 264.939 142.017,264.459 141.192,264.258 140.917 C 263.907 140.438,263.307 139.360,263.096 138.833 C 263.041 138.696,262.662 138.058,262.254 137.417 C 261.845 136.775,261.318 135.840,261.082 135.339 C 260.846 134.838,260.590 134.388,260.512 134.339 C 260.435 134.290,259.940 133.462,259.412 132.500 C 258.884 131.537,258.207 130.375,257.908 129.917 C 257.608 129.458,257.123 128.633,256.830 128.083 C 256.537 127.533,256.285 127.069,256.270 127.052 C 256.255 127.034,256.086 127.259,255.894 127.552 " stroke="none" fill="#ffffff" fill-rule="evenodd"></path><path id="path3" d="" stroke="none" fill="#ffffff" fill-rule="evenodd"></path><path id="path4" d="" stroke="none" fill="#ffffff" fill-rule="evenodd"></path></g></svg>