<?xml version="1.0" standalone="no"?>
<!DOCTYPE svg PUBLIC "-//W3C//DTD SVG 20010904//EN"
 "http://www.w3.org/TR/2001/REC-SVG-20010904/DTD/svg10.dtd">
<svg version="1.0" xmlns="http://www.w3.org/2000/svg"
 viewBox="0 0 330.000000 326.000000"
 preserveAspectRatio="xMidYMid meet">

<g transform="translate(0.000000,326.000000) scale(0.100000,-0.100000)"
fill="#000000" stroke="none">
<path d="M1409 3245 c-707 -111 -1256 -638 -1385 -1330 -26 -140 -26 -430 0
-570 109 -587 531 -1071 1097 -1259 199 -67 288 -80 529 -80 186 0 229 3 320
23 672 144 1159 627 1301 1291 20 90 23 135 23 310 0 175 -3 220 -23 310 -134
626 -584 1103 -1193 1265 -204 54 -473 70 -669 40z m-449 -659 l0 -45 43 -3
42 -3 3 -47 3 -47 42 -3 c42 -3 42 -3 45 -45 3 -42 3 -42 45 -45 42 -3 42 -3
47 -48 5 -45 5 -45 48 -48 l42 -3 0 -45 0 -44 45 0 45 0 0 -44 0 -45 43 -3
c42 -3 42 -3 47 -48 5 -45 5 -45 48 -48 l42 -3 0 -45 0 -44 65 0 65 0 0 44 0
45 43 3 42 3 3 47 3 47 42 3 c39 3 42 5 44 33 0 17 2 35 2 42 1 7 20 13 44 15
42 3 42 3 45 45 3 42 3 42 45 45 42 3 42 3 47 48 5 45 5 45 48 48 l42 3 0 44
0 44 43 3 42 3 3 48 3 47 45 0 44 0 0 45 0 45 155 0 155 0 0 -120 0 -120 -45
0 -45 0 0 -45 0 -45 -45 0 -45 0 0 -44 0 -45 -42 -3 c-43 -3 -43 -3 -46 -45
-3 -43 -3 -43 -43 -43 -38 0 -39 -1 -39 -34 0 -56 -8 -66 -50 -66 -38 0 -39 0
-42 -42 -3 -43 -3 -43 -45 -46 l-42 -3 -3 -47 -3 -47 -42 -3 c-42 -3 -42 -3
-45 -45 -3 -42 -3 -42 -45 -45 -41 -3 -42 -4 -49 -47 -11 -74 -1 -93 49 -97
42 -3 42 -3 45 -45 3 -42 3 -42 45 -45 l42 -3 3 -47 3 -48 45 0 44 0 0 -45 0
-45 45 0 45 0 0 -45 0 -45 39 0 c40 0 40 0 43 -43 3 -42 3 -42 46 -45 l42 -3
0 -44 c0 -46 9 -55 60 -55 27 0 29 -3 32 -42 3 -43 3 -43 46 -46 l42 -3 0
-115 0 -114 -155 0 -155 0 0 45 0 45 -45 0 -45 0 0 45 0 45 -45 0 -45 0 0 44
0 45 -42 3 c-43 3 -43 3 -48 48 -5 45 -5 45 -47 48 -42 3 -42 3 -45 45 -3 41
-4 42 -43 47 -34 4 -40 9 -43 30 -7 66 -10 70 -52 70 -39 0 -39 0 -42 43 -3
42 -3 42 -45 45 l-43 3 0 45 0 44 -65 0 -65 0 0 -38 c0 -21 5 -43 11 -49 7 -7
9 -19 5 -28 -5 -13 -19 -15 -73 -13 -62 3 -68 5 -71 26 -3 20 -8 22 -73 22
-67 0 -69 -1 -69 -25 0 -20 -5 -25 -25 -25 -24 0 -25 -3 -23 -42 3 -38 0 -43
-19 -46 -21 -3 -23 1 -23 42 0 39 3 45 23 48 14 2 23 11 25 26 2 14 10 22 22
22 12 0 20 8 22 23 3 20 9 22 71 25 66 3 67 3 67 -23 0 -23 4 -25 40 -25 l40
0 0 65 0 66 113 -3 112 -3 5 -45 c5 -44 6 -45 45 -50 32 -4 39 -9 37 -24 -2
-10 -1 -29 2 -42 6 -21 12 -24 50 -24 l43 0 -1 -42 -1 -43 45 -5 c45 -5 45 -5
48 -47 3 -42 3 -42 45 -45 l42 -3 3 -47 3 -48 45 0 44 0 0 -44 0 -45 43 -3
c42 -3 42 -3 45 -45 3 -43 3 -43 43 -43 41 0 44 -5 39 -67 -1 -21 3 -22 109
-25 l111 -3 0 67 0 67 -42 3 c-43 3 -43 3 -46 46 -3 42 -3 42 -42 42 l-39 0
-3 48 -3 47 -42 3 -43 3 0 45 0 44 -44 0 -45 0 -3 48 -3 47 -42 3 c-42 3 -42
3 -45 45 -3 42 -3 42 -45 45 -42 3 -42 3 -45 45 -3 42 -3 42 -45 45 l-43 3 0
45 c0 41 -2 44 -27 45 -16 1 -32 1 -37 0 -25 -5 -31 22 -28 128 l3 111 45 0
44 0 0 44 0 45 43 3 c42 3 42 3 45 45 3 42 3 42 45 45 l42 3 3 48 3 47 45 0
44 0 0 44 0 45 43 3 c42 3 42 3 45 45 3 42 3 42 45 45 l42 3 3 48 3 47 39 0
c39 0 39 0 42 43 3 42 3 42 46 45 l42 3 0 70 0 70 -107 -3 -108 -3 -3 -42 c-3
-43 -3 -43 -43 -43 -38 0 -39 -1 -39 -34 0 -56 -8 -66 -50 -66 -38 0 -39 0
-42 -42 -3 -43 -3 -43 -45 -46 l-43 -3 0 -45 0 -44 -45 0 -45 0 0 -45 0 -45
-39 0 c-45 0 -54 -9 -55 -59 -1 -35 -2 -36 -46 -41 -45 -5 -45 -5 -46 -45 0
-39 -1 -40 -40 -45 -33 -4 -39 -9 -42 -30 -8 -74 -1 -70 -122 -70 l-109 0 -3
48 -3 47 -42 3 -43 3 0 44 0 44 -42 3 c-43 3 -43 3 -48 48 -5 45 -5 45 -47 48
l-43 3 0 45 0 44 -45 0 -45 0 0 45 0 45 -45 0 -45 0 0 45 0 45 -44 0 -45 0 -3
48 -3 47 -42 3 -43 3 0 45 0 45 -107 -3 -108 -3 -3 -67 -3 -68 46 0 45 0 0
-44 0 -45 43 -3 c42 -3 42 -3 47 -48 5 -45 5 -45 48 -48 l42 -3 0 -45 0 -44
45 0 45 0 0 -44 0 -45 43 -3 c42 -3 42 -3 47 -48 5 -45 5 -45 47 -48 42 -3 42
-3 45 -45 3 -42 3 -42 46 -45 l42 -3 0 -45 0 -44 45 0 45 0 0 -114 c0 -124 -1
-126 -60 -126 -27 0 -29 -3 -32 -42 -3 -43 -3 -43 -45 -46 l-43 -3 0 -45 0
-44 -45 0 -45 0 0 -44 0 -45 -42 -3 c-43 -3 -43 -3 -48 -48 -5 -45 -5 -45 -47
-48 l-43 -3 0 -44 0 -44 -42 -3 -43 -3 -3 -47 -3 -48 -45 0 -44 0 0 -45 0 -45
-45 0 -45 0 0 -64 0 -65 88 -3 c132 -5 132 -5 132 48 l0 44 45 0 45 0 0 45 0
45 45 0 45 0 0 45 0 45 71 0 c67 0 70 -1 67 -22 -2 -19 -10 -24 -45 -26 -42
-3 -42 -3 -45 -45 -3 -42 -3 -42 -45 -45 l-43 -3 0 -45 0 -44 -45 0 -45 0 0
-45 0 -45 -155 0 -155 0 0 115 0 115 39 0 40 0 3 47 3 47 40 0 c40 1 40 1 45
46 5 45 5 45 48 48 l42 3 0 45 0 44 45 0 45 0 0 45 0 45 45 0 45 0 0 44 0 45
43 3 c42 3 42 3 47 48 5 44 6 45 45 50 39 5 40 6 43 47 3 42 3 42 45 45 l42 3
3 68 3 67 -46 0 -45 0 0 45 0 45 -44 0 -45 0 -3 48 -3 47 -42 3 -43 3 0 45 0
44 -45 0 -45 0 0 50 0 50 -45 0 -45 0 0 45 0 45 -45 0 -45 0 0 45 0 45 -45 0
-45 0 0 45 0 45 -39 0 c-22 0 -41 4 -43 10 -1 5 -2 59 0 120 l3 110 155 0 154
0 0 -44z m691 -1328 c-2 -63 -1 -67 21 -70 22 -3 23 -8 26 -91 3 -85 2 -87
-23 -97 -23 -9 -25 -14 -25 -75 0 -36 4 -66 10 -66 6 -1 16 -2 23 -3 7 0 13
-19 15 -44 3 -37 0 -43 -22 -52 -14 -5 -26 -16 -26 -25 0 -11 -11 -15 -45 -15
-38 0 -45 3 -45 20 0 18 -7 20 -70 20 -63 0 -70 -2 -70 -20 0 -17 -7 -20 -50
-20 -42 0 -50 3 -50 19 0 10 -9 21 -20 24 -16 4 -20 14 -20 51 0 39 3 46 20
46 18 0 20 7 20 70 0 62 -2 70 -19 70 -13 0 -21 8 -23 23 -2 14 -11 23 -26 25
-29 4 -27 44 3 52 29 7 29 29 0 40 -34 13 -34 50 0 50 20 0 25 5 25 26 0 19 4
25 18 22 15 -3 17 -18 20 -121 l3 -117 167 0 168 0 -3 58 c-1 31 -2 63 -2 70
-1 6 -10 12 -21 12 -19 0 -20 7 -20 96 0 92 1 95 22 92 20 -3 21 -8 19 -70z
m-101 -138 c0 -13 -7 -20 -20 -20 -19 0 -27 20 -13 33 13 14 33 6 33 -13z"/>
<path d="M1508 928 c-3 -21 -9 -23 -70 -26 -60 -3 -68 -5 -68 -22 0 -15 -7
-20 -25 -20 -23 0 -25 -3 -25 -50 l0 -50 50 0 c47 0 50 2 50 25 0 24 2 25 70
25 64 0 70 2 70 20 0 12 10 24 24 30 20 7 24 15 23 47 -2 38 -2 38 -49 41 -42
3 -47 1 -50 -20z"/>
</g>
</svg>
